# xmcd
#
# Track frame offsets: 
#        150
#        14826
#        31003
#        47395
#        56250
#        82543
#        99870
#        104612
#        123140
#        139408
#        158747
#        175862
#        196024
#        212499
#        229303
#        250991
#        267976
#
# Disc length: 3688 seconds
#
# Revision: 0
# Processed by: cddbd v1.5.2PL0 Copyright (c) Steve Scherf et al.
# Submitted via: ExactAudioCopy v0.99pb4
#
DISCID=d20e6611
DTITLE=Mic Crenshaw - Thinking Out Loud
DYEAR=2009
DGENRE=Rap
TTITLE0=MC Duz It
TTITLE1=A Lot Of Us
TTITLE2=Rake Em Out
TTITLE3=Teach It
TTITLE4=America
TTITLE5=Thinking Out Loud
TTITLE6=This Is It
TTITLE7=Running Out Of Time
TTITLE8=I Am
TTITLE9=On The Move
TTITLE10=What We Want To Hear
TTITLE11=Fightin Em Back
TTITLE12=Be Free
TTITLE13=So Serious
TTITLE14=Follow Your Instincts
TTITLE15=2 Way Street
TTITLE16=Master Of Ceremonies
EXTD=
EXTT0=
EXTT1=
EXTT2=
EXTT3=
EXTT4=
EXTT5=
EXTT6=
EXTT7=
EXTT8=
EXTT9=
EXTT10=
EXTT11=
EXTT12=
EXTT13=
EXTT14=
EXTT15=
EXTT16=
PLAYORDER=
